grf
version=1
nRows=11
nColumns=46
inDegrees=yes
endheader
time	ground_force_1_vx	ground_force_1_vy	ground_force_1_vz	ground_force_1_px	ground_force_1_py	ground_force_1_pz	ground_moment_1_mx	ground_moment_1_my	ground_moment_1_mz	ground_force_2_vx	ground_force_2_vy	ground_force_2_vz	ground_force_2_px	ground_force_2_py	ground_force_2_pz	ground_moment_2_mx	ground_moment_2_my	ground_moment_2_mz	ground_force_3_vx	ground_force_3_vy	ground_force_3_vz	ground_force_3_px	ground_force_3_py	ground_force_3_pz	ground_moment_3_mx	ground_moment_3_my	ground_moment_3_mz	ground_force_4_vx	ground_force_4_vy	ground_force_4_vz	ground_force_4_px	ground_force_4_py	ground_force_4_pz	ground_moment_4_mx	ground_moment_4_my	ground_moment_4_mz	ground_force_5_vx	ground_force_5_vy	ground_force_5_vz	ground_force_5_px	ground_force_5_py	ground_force_5_pz	ground_moment_5_mx	ground_moment_5_my	ground_moment_5_mz
1.360000	0.000000	0.000000	0.000000	0.000000	0.000000	0.000000	0.000000	0.000000	0.000000	0.000000	0.000000	0.000000	0.000000	0.000000	0.000000	0.000000	0.000000	0.000000	0.000000	0.000000	0.000000	0.000000	0.000000	0.000000	0.000000	0.000000	0.000000	-11.117288	479.015201	25.725355	0.210839	0.000000	-0.897084	-0.000000	11.119715	0.000000	-1.449722	447.973071	-24.779606	0.255306	0.000000	-1.593213	0.000000	-6.888485	-0.000000
1.360500	0.000000	0.000000	0.000000	0.000000	0.000000	0.000000	0.000000	0.000000	0.000000	0.000000	0.000000	0.000000	0.000000	0.000000	0.000000	0.000000	0.000000	0.000000	0.000000	0.000000	0.000000	0.000000	0.000000	0.000000	0.000000	0.000000	0.000000	-11.127911	478.966251	25.762164	0.210838	0.000000	-0.897093	-0.000000	11.122103	0.000000	-1.418241	448.010060	-24.882208	0.255310	0.000000	-1.593205	0.000000	-6.886770	-0.000000
1.361000	0.000000	0.000000	0.000000	0.000000	0.000000	0.000000	0.000000	0.000000	0.000000	0.000000	0.000000	0.000000	0.000000	0.000000	0.000000	0.000000	0.000000	0.000000	0.000000	0.000000	0.000000	0.000000	0.000000	0.000000	0.000000	0.000000	0.000000	-11.137089	478.916527	25.799602	0.210837	0.000000	-0.897102	-0.000000	11.124423	0.000000	-1.385445	448.046794	-24.984598	0.255314	0.000000	-1.593197	0.000000	-6.884947	-0.000000
1.361500	0.000000	0.000000	0.000000	0.000000	0.000000	0.000000	0.000000	0.000000	0.000000	0.000000	0.000000	0.000000	0.000000	0.000000	0.000000	0.000000	0.000000	0.000000	0.000000	0.000000	0.000000	0.000000	0.000000	0.000000	0.000000	0.000000	0.000000	-11.144829	478.865956	25.837688	0.210836	0.000000	-0.897112	-0.000000	11.126670	0.000000	-1.351365	448.083182	-25.086741	0.255319	0.000000	-1.593190	0.000000	-6.883019	-0.000000
1.362000	0.000000	0.000000	0.000000	0.000000	0.000000	0.000000	0.000000	0.000000	0.000000	0.000000	0.000000	0.000000	0.000000	0.000000	0.000000	0.000000	0.000000	0.000000	0.000000	0.000000	0.000000	0.000000	0.000000	0.000000	0.000000	0.000000	0.000000	-11.151141	478.814471	25.876445	0.210835	0.000000	-0.897122	-0.000000	11.128843	0.000000	-1.316034	448.119145	-25.188598	0.255324	0.000000	-1.593182	0.000000	-6.880991	-0.000000
1.362500	0.000000	0.000000	0.000000	0.000000	0.000000	0.000000	0.000000	0.000000	0.000000	0.000000	0.000000	0.000000	0.000000	0.000000	0.000000	0.000000	0.000000	0.000000	0.000000	0.000000	0.000000	0.000000	0.000000	0.000000	0.000000	0.000000	0.000000	-11.156036	478.762019	25.915894	0.210834	0.000000	-0.897132	-0.000000	11.130941	0.000000	-1.279488	448.154618	-25.290132	0.255329	0.000000	-1.593175	0.000000	-6.878869	-0.000000
1.363000	0.000000	0.000000	0.000000	0.000000	0.000000	0.000000	0.000000	0.000000	0.000000	0.000000	0.000000	0.000000	0.000000	0.000000	0.000000	0.000000	0.000000	0.000000	0.000000	0.000000	0.000000	0.000000	0.000000	0.000000	0.000000	0.000000	0.000000	-11.159529	478.708555	25.956060	0.210833	0.000000	-0.897142	-0.000000	11.132963	0.000000	-1.241764	448.189545	-25.391309	0.255334	0.000000	-1.593168	0.000000	-6.876660	-0.000000
1.363500	0.000000	0.000000	0.000000	0.000000	0.000000	0.000000	0.000000	0.000000	0.000000	0.000000	0.000000	0.000000	0.000000	0.000000	0.000000	0.000000	0.000000	0.000000	0.000000	0.000000	0.000000	0.000000	0.000000	0.000000	0.000000	0.000000	0.000000	-11.161637	478.654050	25.996972	0.210831	0.000000	-0.897153	-0.000000	11.134907	0.000000	-1.202902	448.223875	-25.492106	0.255340	0.000000	-1.593160	0.000000	-6.874371	-0.000000
1.364000	0.000000	0.000000	0.000000	0.000000	0.000000	0.000000	0.000000	0.000000	0.000000	0.000000	0.000000	0.000000	0.000000	0.000000	0.000000	0.000000	0.000000	0.000000	0.000000	0.000000	0.000000	0.000000	0.000000	0.000000	0.000000	0.000000	0.000000	-11.162371	478.598486	26.038662	0.210830	0.000000	-0.897163	-0.000000	11.136773	0.000000	-1.162944	448.257558	-25.592507	0.255346	0.000000	-1.593153	0.000000	-6.872009	-0.000000
1.364500	0.000000	0.000000	0.000000	0.000000	0.000000	0.000000	0.000000	0.000000	0.000000	0.000000	0.000000	0.000000	0.000000	0.000000	0.000000	0.000000	0.000000	0.000000	0.000000	0.000000	0.000000	0.000000	0.000000	0.000000	0.000000	0.000000	0.000000	-11.161746	478.541855	26.081164	0.210829	0.000000	-0.897174	-0.000000	11.138558	0.000000	-1.121935	448.290541	-25.692498	0.255352	0.000000	-1.593145	0.000000	-6.869582	-0.000000
1.365000	0.000000	0.000000	0.000000	0.000000	0.000000	0.000000	0.000000	0.000000	0.000000	0.000000	0.000000	0.000000	0.000000	0.000000	0.000000	0.000000	0.000000	0.000000	0.000000	0.000000	0.000000	0.000000	0.000000	0.000000	0.000000	0.000000	0.000000	-11.159777	478.484145	26.124511	0.210827	0.000000	-0.897185	-0.000000	11.140258	0.000000	-1.079918	448.322768	-25.792065	0.255359	0.000000	-1.593138	0.000000	-6.867096	-0.000000
